ffmpeg version 3.2.3 Copyright (c) 2000-2017 the FFmpeg developers
  built with gcc 4.8.5 (GCC) 20150623 (Red Hat 4.8.5-11)
  configuration: --prefix=/usr --bindir=/usr/bin --datadir=/usr/share/ffmpeg --docdir=/usr/share/doc/ffmpeg --incdir=/usr/include/ffmpeg --libdir=/usr/lib64 --mandir=/usr/share/man --arch=x86_64 --optflags='-O2 -g -pipe -Wall -Wp,-D_FORTIFY_SOURCE=2 -fexceptions -fstack-protector-strong --param=ssp-buffer-size=4 -grecord-gcc-switches -m64 -mtune=generic' --extra-ldflags='-Wl,-z,relro ' --extra-cflags=' ' --enable-libopencore-amrnb --enable-libopencore-amrwb --enable-libvo-amrwbenc --enable-version3 --enable-bzlib --disable-crystalhd --enable-fontconfig --enable-gcrypt --enable-gnutls --enable-ladspa --enable-libass --enable-libbluray --enable-libcdio --enable-indev=jack --enable-libfreetype --enable-libfribidi --enable-libgsm --enable-libmp3lame --enable-openal --enable-opencl --enable-opengl --enable-libopenjpeg --disable-libopus --enable-libpulse --enable-libschroedinger --enable-libsoxr --enable-libspeex --enable-libtheora --enable-libvorbis --enable-libv4l2 --enable-libx264 --enable-libx265 --enable-libxvid --enable-x11grab --enable-avfilter --enable-avresample --enable-postproc --enable-pthreads --disable-static --enable-shared --enable-gpl --disable-debug --disable-stripping --shlibdir=/usr/lib64 --enable-libmfx --enable-runtime-cpudetect
  libavutil      55. 34.101 / 55. 34.101
  libavcodec     57. 64.101 / 57. 64.101
  libavformat    57. 56.101 / 57. 56.101
  libavdevice    57.  1.100 / 57.  1.100
  libavfilter     6. 65.100 /  6. 65.100
  libavresample   3.  1.  0 /  3.  1.  0
  libswscale      4.  2.100 /  4.  2.100
  libswresample   2.  3.100 /  2.  3.100
  libpostproc    54.  1.100 / 54.  1.100
Input #0, image2, from '/users/pagrubel/graphics_output/graph%05d.png':
  Duration: 00:00:08.04, start: 0.000000, bitrate: N/A
    Stream #0:0: Video: png, rgba64be(pc), 800x800 [SAR 72:72 DAR 1:1], 25 fps, 25 tbr, 25 tbn, 25 tbc
[libx264 @ 0x95bcc0] using SAR=1/1
[libx264 @ 0x95bcc0] using cpu capabilities: MMX2 SSE2Fast SSSE3 SSE4.2 AVX FMA3 AVX2 LZCNT BMI2
[libx264 @ 0x95bcc0] profile High, level 3.1
[libx264 @ 0x95bcc0] 264 - core 148 r2748 97eaef2 - H.264/MPEG-4 AVC codec - Copyleft 2003-2016 - http://www.videolan.org/x264.html - options: cabac=1 ref=3 deblock=1:0:0 analyse=0x3:0x113 me=hex subme=7 psy=1 psy_rd=1.00:0.00 mixed_ref=1 me_range=16 chroma_me=1 trellis=1 8x8dct=1 cqm=0 deadzone=21,11 fast_pskip=1 chroma_qp_offset=-2 threads=25 lookahead_threads=4 sliced_threads=0 nr=0 decimate=1 interlaced=0 bluray_compat=0 constrained_intra=0 bframes=3 b_pyramid=2 b_adapt=1 b_bias=0 direct=1 weightb=1 open_gop=0 weightp=2 keyint=250 keyint_min=12 scenecut=40 intra_refresh=0 rc_lookahead=40 rc=crf mbtree=1 crf=23.0 qcomp=0.60 qpmin=0 qpmax=69 qpstep=4 ip_ratio=1.40 aq=1:1.00
Output #0, mp4, to '/users/pagrubel/CLAMR_movie.mp4':
  Metadata:
    encoder         : Lavf57.56.101
    Stream #0:0: Video: h264 (libx264) ([33][0][0][0] / 0x0021), yuv420p, 800x800 [SAR 1:1 DAR 1:1], q=-1--1, 12 fps, 12288 tbn, 12 tbc
    Metadata:
      encoder         : Lavc57.64.101 libx264
    Side data:
      cpb: bitrate max/min/avg: 0/0/0 buffer size: 0 vbv_delay: -1
Stream mapping:
  Stream #0:0 -> #0:0 (png (native) -> h264 (libx264))
Press [q] to stop, [?] for help
frame=   23 fps=0.0 q=0.0 size=       0kB time=00:00:00.00 bitrate=N/A dup=0 drop=21 speed=   0x    frame=   44 fps= 43 q=0.0 size=       0kB time=00:00:00.00 bitrate=N/A dup=0 drop=44 speed=   0x    frame=   64 fps= 42 q=0.0 size=       0kB time=00:00:00.00 bitrate=N/A dup=0 drop=65 speed=   0x    frame=   85 fps= 42 q=26.0 size=     178kB time=00:00:01.08 bitrate=1346.3kbits/s dup=0 drop=88 speed=0.534x    frame=   98 fps= 37 q=-1.0 Lsize=    2420kB time=00:00:07.91 bitrate=2504.6kbits/s dup=0 drop=103 speed=3.01x    
video:2418kB audio:0kB subtitle:0kB other streams:0kB global headers:0kB muxing overhead: 0.082860%
[libx264 @ 0x95bcc0] frame I:1     Avg QP:28.17  size: 62921
[libx264 @ 0x95bcc0] frame P:25    Avg QP:24.88  size: 40556
[libx264 @ 0x95bcc0] frame B:72    Avg QP:27.64  size: 19430
[libx264 @ 0x95bcc0] consecutive B-frames:  1.0%  2.0%  3.1% 93.9%
[libx264 @ 0x95bcc0] mb I  I16..4: 16.4%  0.5% 83.0%
[libx264 @ 0x95bcc0] mb P  I16..4: 10.2%  1.5% 24.7%  P16..4: 13.3%  6.5%  5.0%  0.0%  0.0%    skip:38.7%
[libx264 @ 0x95bcc0] mb B  I16..4:  2.2%  0.2%  2.7%  B16..8: 17.9%  7.6%  6.9%  direct: 6.5%  skip:56.0%  L0:48.1% L1:40.5% BI:11.5%
[libx264 @ 0x95bcc0] 8x8 transform intra:3.5% inter:41.3%
[libx264 @ 0x95bcc0] coded y,uvDC,uvAC intra: 46.5% 94.8% 81.3% inter: 18.9% 25.3% 20.8%
[libx264 @ 0x95bcc0] i16 v,h,dc,p: 54% 44%  2%  0%
[libx264 @ 0x95bcc0] i8 v,h,dc,ddl,ddr,vr,hd,vl,hu: 33% 33% 21%  4%  1%  1%  1%  2%  4%
[libx264 @ 0x95bcc0] i4 v,h,dc,ddl,ddr,vr,hd,vl,hu: 58% 34%  6%  0%  0%  0%  0%  0%  0%
[libx264 @ 0x95bcc0] i8c dc,h,v,p:  5% 43% 48%  3%
[libx264 @ 0x95bcc0] Weighted P-Frames: Y:8.0% UV:8.0%
[libx264 @ 0x95bcc0] ref P L0: 42.8% 11.5% 24.2% 18.6%  2.9%
[libx264 @ 0x95bcc0] ref B L0: 83.5% 11.2%  5.2%
[libx264 @ 0x95bcc0] ref B L1: 95.0%  5.0%
[libx264 @ 0x95bcc0] kb/s:2425.24
